<svg xmlns="http://www.w3.org/2000/svg" width="70" height="52" viewBox="0 0 70 52"><defs><style>.a{fill:#fff;}</style></defs><path class="a" d="M76.582,26H66.861A4.875,4.875,0,0,0,62,30.861V51.923a4.875,4.875,0,0,0,4.861,4.861h9.721a4.875,4.875,0,0,0,4.861-4.861V30.861A4.875,4.875,0,0,0,76.582,26ZM78.2,51.923a1.625,1.625,0,0,1-1.62,1.62H66.861a1.625,1.625,0,0,1-1.62-1.62V30.861a1.625,1.625,0,0,1,1.62-1.62h9.721a1.625,1.625,0,0,1,1.62,1.62Z" transform="translate(-11.442 -4.783)"/><path class="a" d="M42.352,48.75H32.578V40.625H45.61A1.632,1.632,0,0,0,47.239,39h0a1.632,1.632,0,0,0-1.629-1.625H6.516a3.263,3.263,0,0,1-3.258-3.25V6.5A3.263,3.263,0,0,1,6.516,3.25H55.383A3.264,3.264,0,0,1,58.641,6.5v9.75a1.632,1.632,0,0,0,1.629,1.625h0A1.632,1.632,0,0,0,61.9,16.25V6.5A6.527,6.527,0,0,0,55.383,0H6.516A6.527,6.527,0,0,0,0,6.5V34.125a6.527,6.527,0,0,0,6.516,6.5h22.8V48.75H19.547a1.625,1.625,0,1,0,0,3.25h22.8a1.625,1.625,0,1,0,0-3.25Z"/></svg>