<svg xmlns="http://www.w3.org/2000/svg" xmlns:xlink="http://www.w3.org/1999/xlink" width="23" height="25" viewBox="0 0 23 25"><defs><style>.a{fill:#fff;}.b{filter:url(#a);}</style><filter id="a" x="0" y="0" width="23" height="25" filterUnits="userSpaceOnUse"><feOffset dy="1" input="SourceAlpha"/><feGaussianBlur result="b"/><feFlood flood-opacity="0.161"/><feComposite operator="in" in2="b"/><feComposite in="SourceGraphic"/></filter></defs><g class="b" transform="matrix(1, 0, 0, 1, 0, 0)"><path class="a" d="M117.9,1492.709l-22.822-11.3v.365a.321.321,0,0,0,.058.184l7.777,11.16a.1.1,0,0,1,.007.013.4.4,0,0,1-.007.567h0l-7.777,11.16a.32.32,0,0,0-.058.184v.365l22.822-11.3a.32.32,0,0,0,.178-.287V1493A.32.32,0,0,0,117.9,1492.709Z" transform="translate(-95.08 -1481.41)"/></g></svg>