<svg xmlns="http://www.w3.org/2000/svg" width="32" height="32" viewBox="0 0 32 32"><defs><style>.a{fill:#4fb8e9;}</style></defs><path class="a" d="M31.989,12.165a.815.815,0,0,0-.595-.535L21.245,10.115,16.7.446a.741.741,0,0,0-1.359,0L10.8,10.115.649,11.63a.75.75,0,0,0-.595.535.915.915,0,0,0,.17.8L7.571,20.5,5.83,31.1a.825.825,0,0,0,.3.758.686.686,0,0,0,.764.045l9.088-4.991L25.067,31.9a.961.961,0,0,0,.34.089.694.694,0,0,0,.425-.134.869.869,0,0,0,.3-.758L24.43,20.5l7.347-7.531A.8.8,0,0,0,31.989,12.165Z" transform="translate(-0.022)"/></svg>