<svg xmlns="http://www.w3.org/2000/svg" width="198" height="75" viewBox="0 0 198 75"><defs><style>.a{fill:#fff;}</style></defs><g transform="translate(0 38.712)"><path class="a" d="M-135.585,20.473-144.4-7.5h6.781l3.306,11.865c.932,3.291,1.78,6.5,2.458,10.046h.085c.678-3.378,1.526-6.669,2.458-9.873l3.475-11.951h6.611l-9.239,27.973h-7.12Z" transform="translate(144.4 8.972)"/><path class="a" d="M-109.652,13.444c.17,2.6,2.712,3.9,5.594,3.9a15.694,15.694,0,0,0,5.509-.866l.848,4.244a18.536,18.536,0,0,1-7.2,1.212c-6.781,0-10.6-3.984-10.6-10.306,0-5.11,3.136-10.826,10-10.826,6.442,0,8.9,5.11,8.9,10.133a17.283,17.283,0,0,1-.17,2.512Zm7.289-4.33c0-1.559-.678-4.07-3.475-4.07-2.628,0-3.645,2.425-3.814,4.07Z" transform="translate(139.996 7.861)"/><path class="a" d="M-89.6-9.2h6.188V20.246H-89.6Z" transform="translate(136.049 9.2)"/><path class="a" d="M-57.834,11.193c0,7.448-5.17,10.826-10.51,10.826-5.848,0-10.256-3.9-10.256-10.479S-74.362.8-68,.8C-61.9.8-57.834,5.13-57.834,11.193Zm-14.324.26c0,3.464,1.441,6.062,4.068,6.062,2.373,0,3.984-2.425,3.984-6.062,0-3.031-1.1-6.062-3.984-6.062C-71.141,5.3-72.158,8.421-72.158,11.452Z" transform="translate(134.372 7.861)"/><path class="a" d="M-52.7,21.612l6.866-10.479L-52.446,1H-46l3.39,5.976L-39.308,1h6.272l-6.611,10.046,6.866,10.566h-6.611l-3.475-6.236-3.475,6.236Z" transform="translate(130.425 7.834)"/></g><g transform="translate(106.798 47.2)"><path class="a" d="M-17.807,19.307A7.873,7.873,0,0,0-13.4,20.692c2.967,0,4.831-1.732,4.831-4.33,0-2.338-1.187-3.637-4.068-4.85-3.306-1.126-5.255-2.858-5.255-5.716,0-3.031,2.458-5.2,5.848-5.2a7.864,7.864,0,0,1,3.984.953l-.509,1.212a6.238,6.238,0,0,0-3.475-.953c-3.306,0-4.408,2.165-4.408,3.811,0,2.338,1.271,3.464,4.238,4.59,3.306,1.386,5.086,2.945,5.086,5.976s-2.119,5.629-6.442,5.629A8.9,8.9,0,0,1-18.4,20.433Z" transform="translate(18.4 -0.6)"/><path class="a" d="M-2.374,7.8,1.44,17.413a26.694,26.694,0,0,1,1.017,3.118h.085c.254-.866.678-1.992,1.1-3.2L7.119,7.8H8.645l-4.323,11c-1.78,4.59-2.967,7.275-4.831,9.007a9.041,9.041,0,0,1-2.543,1.559l-.424-1.212A7.315,7.315,0,0,0-.933,26.507,10.933,10.933,0,0,0,1.44,22.869c.085-.346.17-.52.17-.606a3.59,3.59,0,0,0-.17-.606L-3.9,7.8Z" transform="translate(16.19 -1.564)"/><path class="a" d="M12.593,20.577a5.961,5.961,0,0,0,3.221,1.039c2.289,0,3.39-1.3,3.39-2.771,0-1.645-.932-2.512-3.051-3.378-2.373-.953-3.645-2.252-3.645-3.984A4.066,4.066,0,0,1,16.916,7.5a5.224,5.224,0,0,1,3.136.953l-.593,1.212A4.955,4.955,0,0,0,16.577,8.8a2.529,2.529,0,0,0-2.8,2.512c0,1.559,1.017,2.165,2.967,3.031,2.373.953,3.729,2.079,3.729,4.33,0,2.512-1.949,4.157-4.831,4.157A6.737,6.737,0,0,1,12,21.79Z" transform="translate(13.767 -1.524)"/><path class="a" d="M27.584,2.9V7.144h4.068V8.27H27.584V17.8c0,1.905.593,3.031,2.119,3.031a3.647,3.647,0,0,0,1.61-.26l.17,1.126a5.8,5.8,0,0,1-2.034.346A2.988,2.988,0,0,1,26.99,21a5.244,5.244,0,0,1-.932-3.464V8.183H23.6V7.057h2.458V3.246Z" transform="translate(11.999 -0.908)"/><path class="a" d="M35.956,14.935c0,4.677,2.543,6.582,5.509,6.582a7.776,7.776,0,0,0,3.984-.866l.339,1.126a8.774,8.774,0,0,1-4.492.953c-4.153,0-6.7-3.031-6.7-7.361,0-4.936,2.8-7.968,6.442-7.968,4.747,0,5.594,4.5,5.594,6.669a2.463,2.463,0,0,1-.085.866Zm9.154-1.126c0-2.079-.848-5.2-4.323-5.2-3.136,0-4.577,2.945-4.831,5.2Z" transform="translate(10.323 -1.511)"/><path class="a" d="M52.385,11.3c0-1.386-.085-2.338-.085-3.551h1.356l.085,2.6h0A5.087,5.087,0,0,1,58.4,7.4a4.388,4.388,0,0,1,4.153,3.2h.085a6.256,6.256,0,0,1,1.441-1.992A5.006,5.006,0,0,1,67.557,7.4c1.441,0,4.662.779,4.662,6.409v8.661H70.778V13.982c0-3.291-1.271-5.283-3.729-5.283a4.318,4.318,0,0,0-3.814,2.945,4.124,4.124,0,0,0-.254,1.472v9.44H61.539v-9.18c0-2.685-1.271-4.59-3.56-4.59A4.373,4.373,0,0,0,54,12.077a4,4,0,0,0-.254,1.386v9.094H52.3V11.3Z" transform="translate(7.626 -1.511)"/><path class="a" d="M79.793,20.577a5.961,5.961,0,0,0,3.221,1.039c2.289,0,3.39-1.3,3.39-2.771,0-1.645-.932-2.512-3.051-3.378-2.373-.953-3.645-2.252-3.645-3.984A4.066,4.066,0,0,1,84.116,7.5a5.224,5.224,0,0,1,3.136.953l-.593,1.212A4.954,4.954,0,0,0,83.777,8.8a2.529,2.529,0,0,0-2.8,2.512c0,1.559,1.017,2.165,2.967,3.031,2.373.953,3.729,2.079,3.729,4.33,0,2.512-1.95,4.157-4.831,4.157A6.737,6.737,0,0,1,79.2,21.79Z" transform="translate(3.526 -1.524)"/></g><g transform="translate(85.862)"><path class="a" d="M-19.189-26.113l-9.917,20.7c-.085.087,0,.26.17.26h.509c.085,0,.085,0,.17-.087L-18.85-17.8a.157.157,0,0,1,.254,0l6.018,4.33h.678c.17,0,.254-.173.17-.26l-6.611-12.385c0-.087-.085-.087-.17-.087h-.509C-19.1-26.2-19.1-26.113-19.189-26.113Z" transform="translate(40.972 50.19)"/><path class="a" d="M-14.815-28.671,5.358-18.538c.085.087.254,0,.254-.173v-.52c0-.087,0-.087-.085-.173L-6.678-28.93a.165.165,0,0,1,0-.26l4.238-6.149v-.693c0-.173-.17-.26-.254-.173L-14.815-29.45c-.085,0-.085.087-.085.173v.52A.084.084,0,0,0-14.815-28.671Z" transform="translate(38.802 51.534)"/><path class="a" d="M-17.747-33.028-7.83-53.64c.085-.087,0-.26-.17-.26h-.509c-.085,0-.085,0-.17.087l-9.493,12.471a.157.157,0,0,1-.254,0l-6.018-4.33h-.593c-.17,0-.254.173-.17.26l6.611,12.385c0,.087.085.087.17.087h.509A.26.26,0,0,0-17.747-33.028Z" transform="translate(40.378 53.9)"/><path class="a" d="M-22.673-30.072-42.846-40.205c-.085-.087-.254,0-.254.173v.52c0,.087,0,.087.085.173l12.205,9.7a.165.165,0,0,1,0,.26l-4.238,6.149v.693c0,.173.17.26.254.173l12.121-6.755c.085,0,.085-.087.085-.173v-.52C-22.588-29.986-22.588-29.986-22.673-30.072Z" transform="translate(43.1 52.07)"/></g></svg>