<svg xmlns="http://www.w3.org/2000/svg" width="27" height="24" viewBox="0 0 27 24"><defs><style>.a{fill:#fff;}</style></defs><g transform="translate(1782.679 -1302.804)"><path class="a" d="M-1771.361,1310.9a.53.53,0,0,0,.5.483c.013,0,.025.009.039.01v0h.02l.012,0h2.76a.577.577,0,0,0,.537-.536v-2.434c0-.006,0-.012-.005-.018a.235.235,0,0,0,0-.026.53.53,0,0,0-.5-.483c-.013,0-.025-.008-.039-.009v0h-.02l-.012,0h-2.76a.576.576,0,0,0-.537.536v2.434c0,.006,0,.011.005.018A.194.194,0,0,0-1771.361,1310.9Zm2.79-1.944v1.367h-1.718v-1.367Z" transform="translate(0.196 0.16)"/><path class="a" d="M-1771.361,1316.985a.53.53,0,0,0,.5.484c.013,0,.024.008.038.009v0h.02l.012,0h2.76a.576.576,0,0,0,.537-.536v-2.434c0-.006,0-.012-.005-.018a.247.247,0,0,0,0-.025.528.528,0,0,0-.5-.483c-.014,0-.025-.009-.039-.01v0h-.02l-.012,0h-2.76a.576.576,0,0,0-.537.536v2.434c0,.006,0,.012.005.018A.22.22,0,0,0-1771.361,1316.985Zm2.79-1.944v1.368h-1.718v-1.368Z" transform="translate(0.196 0.352)"/><path class="a" d="M-1771.361,1322.905a.528.528,0,0,0,.5.483c.013,0,.025.009.039.01v0h.02l.012,0h2.76a.576.576,0,0,0,.537-.536v-2.434c0-.006,0-.012-.005-.018a.251.251,0,0,0,0-.025.528.528,0,0,0-.5-.483c-.013,0-.025-.009-.039-.01v0h-.02l-.012,0h-2.76a.576.576,0,0,0-.537.536v2.434c0,.006,0,.012.005.018A.194.194,0,0,0-1771.361,1322.905Zm2.79-1.944v1.368h-1.718v-1.368Z" transform="translate(0.196 0.627)"/><path class="a" d="M-1756.284,1315.656h-7.386v-8.965a.588.588,0,0,0-.387-.545l-9.833-3.333-.112-.008a.723.723,0,0,0-.439.142.49.49,0,0,0-.245.477v8.735h-7.4a.648.648,0,0,0-.6.612v13.43a.648.648,0,0,0,.6.6h25.8a.647.647,0,0,0,.6-.611v-9.932A.65.65,0,0,0-1756.284,1315.656Zm-20.557,9.924h-2.416v-2.771a1.215,1.215,0,0,1,1.207-1.221h0a1.216,1.216,0,0,1,1.208,1.222Zm2.15,0h-.939v-2.771a2.438,2.438,0,0,0-2.42-2.449,2.437,2.437,0,0,0-2.418,2.449v2.768h-1v-12.193h6.78Zm9.808,0h-8.6l0-21.313,8.593,2.88Zm5.838,0h-2.473v-3.191h2.473Zm2.155,0h-1.06v-3.756a.648.648,0,0,0-.6-.6h-3.638a.648.648,0,0,0-.6.613v3.8h-1v-8.85h6.894Z"/></g></svg>