<svg xmlns="http://www.w3.org/2000/svg" width="76" height="76" viewBox="0 0 76 76"><defs><style>.a{fill:#fff;}</style></defs><g transform="translate(1497.068 -1831.51)"><path class="a" d="M-1462.283,1869.974l-4.624-4.623-2.88,2.879,7.5,7.5,11.641-11.641-2.879-2.88Z" transform="translate(1.146 1.151)"/><path class="a" d="M-1425.094,1865.485a4,4,0,0,0-3.714,2.483h-13.174a16.94,16.94,0,0,0-3.6-9.763l9-9a4.01,4.01,0,0,0,1.54.3,3.993,3.993,0,0,0,2.842-1.176,4.033,4.033,0,0,0,0-5.694,4,4,0,0,0-2.847-1.177,4,4,0,0,0-2.846,1.178,4,4,0,0,0-.871,4.381l-8.925,8.926a16.933,16.933,0,0,0-9.838-4.271v-12.427a4,4,0,0,0,2.482-3.713,4.029,4.029,0,0,0-4.024-4.025,4.03,4.03,0,0,0-4.026,4.025,4,4,0,0,0,2.482,3.713v12.427a16.927,16.927,0,0,0-9.837,4.271l-8.926-8.926a4,4,0,0,0-.872-4.382,4,4,0,0,0-2.846-1.177,4,4,0,0,0-2.846,1.178,4.029,4.029,0,0,0,0,5.692,3.986,3.986,0,0,0,2.84,1.177,4.01,4.01,0,0,0,1.54-.3l9,9a16.949,16.949,0,0,0-3.6,9.763h-13.173a4,4,0,0,0-3.714-2.483,4.03,4.03,0,0,0-4.025,4.027,4.03,4.03,0,0,0,4.025,4.024,4,4,0,0,0,3.714-2.482h13.318a17,17,0,0,0,4.18,9.037l-9.727,9.726a4.03,4.03,0,0,0-1.54-.3,3.991,3.991,0,0,0-2.84,1.177,4,4,0,0,0-1.179,2.847,4,4,0,0,0,1.179,2.846,4,4,0,0,0,2.846,1.179,4,4,0,0,0,2.846-1.18,4,4,0,0,0,.872-4.381l9.8-9.8a17,17,0,0,0,8.962,3.546v14.027a4,4,0,0,0-2.482,3.714,4.03,4.03,0,0,0,4.026,4.025,4.029,4.029,0,0,0,4.024-4.025,4,4,0,0,0-2.482-3.714v-14.027a17.005,17.005,0,0,0,8.962-3.546l9.8,9.8a4,4,0,0,0,.871,4.382,4,4,0,0,0,2.846,1.179,4,4,0,0,0,2.847-1.179,4,4,0,0,0,1.179-2.846,4,4,0,0,0-1.179-2.846,3.991,3.991,0,0,0-2.842-1.178,4.031,4.031,0,0,0-1.54.3l-9.726-9.726a16.986,16.986,0,0,0,4.18-9.037h13.318a4,4,0,0,0,3.714,2.482,4.03,4.03,0,0,0,4.026-4.024A4.031,4.031,0,0,0-1425.094,1865.485Zm-33.975,17.216a14.005,14.005,0,0,1-13.989-13.99,14,14,0,0,1,13.989-13.989,14.006,14.006,0,0,1,13.99,13.989A14.006,14.006,0,0,1-1459.068,1882.7Z" transform="translate(0 0)"/></g></svg>