<svg xmlns="http://www.w3.org/2000/svg" width="133" height="50" viewBox="0 0 133 50"><defs><style>.a{fill:#004680;}.b{fill:#777;}.c{fill:#4fb8e9;}</style></defs><g transform="translate(0 0)"><g transform="translate(0 25.808)"><path class="a" d="M-138.479,11.149-144.4-7.5h4.555l2.22,7.91c.626,2.194,1.2,4.33,1.651,6.7h.057c.455-2.252,1.025-4.446,1.651-6.582l2.334-7.968h4.441L-133.7,11.207h-4.783Z" transform="translate(144.4 8.482)"/><path class="a" d="M-111.571,9.23c.114,1.732,1.822,2.6,3.758,2.6a10.614,10.614,0,0,0,3.7-.577l.569,2.829a12.536,12.536,0,0,1-4.839.808c-4.555,0-7.117-2.656-7.117-6.871,0-3.406,2.107-7.217,6.718-7.217,4.327,0,5.978,3.406,5.978,6.755a11.436,11.436,0,0,1-.114,1.674Zm4.9-2.887c0-1.039-.455-2.714-2.334-2.714a2.735,2.735,0,0,0-2.562,2.714Z" transform="translate(131.954 4.974)"/><path class="a" d="M-89.6-9.2h4.156V10.43H-89.6Z" transform="translate(120.8 9.2)"/><path class="a" d="M-64.651,7.728c0,4.965-3.473,7.217-7.06,7.217A6.558,6.558,0,0,1-78.6,7.959C-78.6,3.571-75.753.8-71.483.8A6.562,6.562,0,0,1-64.651,7.728Zm-9.622.173c0,2.309.968,4.042,2.733,4.042,1.594,0,2.676-1.617,2.676-4.042,0-2.021-.74-4.042-2.676-4.042C-73.59,3.8-74.273,5.881-74.273,7.9Z" transform="translate(116.063 4.974)"/><path class="a" d="M-52.7,14.741l4.612-6.986L-52.529,1H-48.2l2.277,3.984L-43.7,1h4.213l-4.441,6.7,4.612,7.044h-4.441L-46.1,10.584l-2.334,4.157Z" transform="translate(104.909 4.889)"/></g><g transform="translate(71.738 31.467)"><path class="b" d="M-18,13.071a5.316,5.316,0,0,0,2.961.924c1.993,0,3.245-1.155,3.245-2.887,0-1.559-.8-2.425-2.733-3.233-2.22-.751-3.53-1.905-3.53-3.811C-18.058,2.043-16.407.6-14.13.6a5.314,5.314,0,0,1,2.676.635l-.342.808a4.213,4.213,0,0,0-2.334-.635c-2.22,0-2.961,1.443-2.961,2.54,0,1.559.854,2.309,2.847,3.06,2.22.924,3.416,1.963,3.416,3.984s-1.423,3.753-4.327,3.753a6.015,6.015,0,0,1-3.245-.924Z" transform="translate(18.4 -0.6)"/><path class="b" d="M-2.875,7.8l2.562,6.409A17.7,17.7,0,0,1,.37,16.287H.427c.171-.577.455-1.328.74-2.136L3.5,7.8H4.526l-2.9,7.333c-1.2,3.06-1.993,4.85-3.245,6a6.083,6.083,0,0,1-1.708,1.039l-.285-.808a4.919,4.919,0,0,0,1.708-1.1A7.285,7.285,0,0,0-.313,17.846c.057-.231.114-.346.114-.4a2.379,2.379,0,0,0-.114-.4L-3.9,7.8Z" transform="translate(12.156 -3.643)"/><path class="b" d="M12.4,16.218a4.024,4.024,0,0,0,2.164.693c1.537,0,2.277-.866,2.277-1.848,0-1.1-.626-1.674-2.05-2.252-1.594-.635-2.448-1.5-2.448-2.656A2.723,2.723,0,0,1,15.3,7.5a3.528,3.528,0,0,1,2.107.635l-.4.808a3.345,3.345,0,0,0-1.936-.577A1.693,1.693,0,0,0,13.2,10.04c0,1.039.683,1.443,1.993,2.021,1.594.635,2.505,1.386,2.505,2.887,0,1.674-1.31,2.771-3.245,2.771A4.55,4.55,0,0,1,12,17.027Z" transform="translate(5.308 -3.516)"/><path class="b" d="M26.276,2.9V5.729h2.733V6.48H26.276v6.351c0,1.27.4,2.021,1.423,2.021a2.466,2.466,0,0,0,1.082-.173l.114.751a3.921,3.921,0,0,1-1.366.231,2.014,2.014,0,0,1-1.651-.693,3.477,3.477,0,0,1-.626-2.309V6.422H23.6V5.671h1.651V3.131Z" transform="translate(0.313 -1.572)"/><path class="b" d="M35.511,12.423c0,3.118,1.708,4.388,3.7,4.388a5.255,5.255,0,0,0,2.676-.577l.228.751a5.929,5.929,0,0,1-3.018.635c-2.79,0-4.5-2.021-4.5-4.908,0-3.291,1.879-5.312,4.327-5.312,3.188,0,3.758,3,3.758,4.446a1.631,1.631,0,0,1-.057.577Zm6.149-.751c0-1.386-.569-3.464-2.9-3.464-2.107,0-3.074,1.963-3.245,3.464Z" transform="translate(-4.424 -3.474)"/><path class="b" d="M52.357,10c0-.924-.057-1.559-.057-2.367h.911l.057,1.732h0A3.419,3.419,0,0,1,56.4,7.4a2.944,2.944,0,0,1,2.79,2.136h.057a4.173,4.173,0,0,1,.968-1.328A3.378,3.378,0,0,1,62.548,7.4c.968,0,3.131.52,3.131,4.273v5.774h-.968V11.788c0-2.194-.854-3.522-2.505-3.522a2.9,2.9,0,0,0-2.562,1.963,2.731,2.731,0,0,0-.171.982V17.5h-.968v-6.12c0-1.79-.854-3.06-2.391-3.06a2.932,2.932,0,0,0-2.676,2.194,2.648,2.648,0,0,0-.171.924V17.5H52.3V10Z" transform="translate(-12.047 -3.474)"/><path class="b" d="M79.6,16.218a4.024,4.024,0,0,0,2.164.693c1.537,0,2.277-.866,2.277-1.848,0-1.1-.626-1.674-2.05-2.252-1.594-.635-2.448-1.5-2.448-2.656A2.723,2.723,0,0,1,82.5,7.5a3.528,3.528,0,0,1,2.107.635l-.4.808a3.345,3.345,0,0,0-1.936-.577A1.693,1.693,0,0,0,80.4,10.04c0,1.039.683,1.443,1.993,2.021,1.594.635,2.505,1.386,2.505,2.887,0,1.674-1.31,2.771-3.245,2.771a4.55,4.55,0,0,1-2.448-.693Z" transform="translate(-23.632 -3.516)"/></g><g transform="translate(57.675)"><path class="c" d="M-22.456-26.142l-6.661,13.8c-.057.058,0,.173.114.173h.342c.057,0,.057,0,.114-.058l6.32-8.372a.106.106,0,0,1,.171,0l4.042,2.887h.455c.114,0,.171-.115.114-.173l-4.441-8.256c0-.058-.057-.058-.114-.058h-.342C-22.4-26.2-22.4-26.142-22.456-26.142Z" transform="translate(37.088 42.193)"/><path class="c" d="M-14.843-31.193l13.551,6.755c.057.058.171,0,.171-.115V-24.9c0-.058,0-.058-.057-.115l-8.2-6.351a.109.109,0,0,1,0-.173l2.847-4.1V-36.1c0-.115-.114-.173-.171-.115l-8.142,4.5c-.057,0-.057.058-.057.115v.346A.056.056,0,0,0-14.843-31.193Z" transform="translate(30.956 46.436)"/><path class="c" d="M-20.207-39.985l6.661-13.741c.057-.058,0-.173-.114-.173H-14c-.057,0-.057,0-.114.058l-6.377,8.314a.106.106,0,0,1-.171,0L-24.7-48.415h-.4c-.114,0-.171.115-.114.173l4.441,8.256c0,.058.057.058.114.058h.342A.175.175,0,0,0-20.207-39.985Z" transform="translate(35.408 53.9)"/><path class="c" d="M-29.379-33.461l-13.551-6.755c-.057-.058-.171,0-.171.115v.346c0,.058,0,.058.057.115l8.2,6.467a.109.109,0,0,1,0,.173l-2.847,4.1v.462c0,.115.114.173.171.115l8.142-4.5c.057,0,.057-.058.057-.115v-.346C-29.322-33.4-29.322-33.4-29.379-33.461Z" transform="translate(43.1 48.126)"/></g></g></svg>