<svg xmlns="http://www.w3.org/2000/svg" width="18" height="18" viewBox="0 0 18 18"><defs><style>.a{fill:#fff;}</style></defs><g transform="translate(1381.951 -970.01)"><path class="a" d="M-1374.213,970.01a.721.721,0,0,0-.641.576l-.361,1.781a6.786,6.786,0,0,0-.81.338l-1.521-1a.722.722,0,0,0-.9.1c-.546.547-1.141,1.1-1.711,1.669a.718.718,0,0,0-.091.912l1.025,1.522a7.281,7.281,0,0,0-.339.823l-1.814.395a.722.722,0,0,0-.574.71v2.355a.722.722,0,0,0,.574.7l1.814.395a7.29,7.29,0,0,0,.339.823l-1.025,1.533a.722.722,0,0,0,.091.9c.57.572,1.166,1.12,1.711,1.667a.722.722,0,0,0,.9.1l1.532-.992a6.9,6.9,0,0,0,.812.338l.349,1.77a.72.72,0,0,0,.71.586h2.388a.72.72,0,0,0,.71-.586l.349-1.77a6.9,6.9,0,0,0,.812-.338l1.532.992a.722.722,0,0,0,.9-.1c.545-.547,1.141-1.1,1.711-1.667a.722.722,0,0,0,.09-.9l-1.025-1.533a7.021,7.021,0,0,0,.337-.823l1.814-.395a.722.722,0,0,0,.575-.7v-2.355a.722.722,0,0,0-.575-.71l-1.814-.395a7.012,7.012,0,0,0-.337-.823l1.025-1.522a.72.72,0,0,0-.09-.912c-.57-.573-1.166-1.122-1.711-1.669a.722.722,0,0,0-.9-.1l-1.521,1a6.79,6.79,0,0,0-.811-.338l-.36-1.781a.721.721,0,0,0-.71-.576h-2.456Zm.666,1.444h1.193l.316,1.555a.722.722,0,0,0,.53.552,5.433,5.433,0,0,1,1.351.576.721.721,0,0,0,.755-.023l1.352-.878c.291.283.583.556.867.833l-.9,1.353a.722.722,0,0,0-.034.755,5.853,5.853,0,0,1,.574,1.375.723.723,0,0,0,.54.519l1.611.337v1.2l-1.611.349a.723.723,0,0,0-.54.519,5.787,5.787,0,0,1-.574,1.363.722.722,0,0,0,.034.767l.889,1.341c-.284.277-.565.561-.856.845l-1.352-.89a.721.721,0,0,0-.755-.012,5.4,5.4,0,0,1-1.351.564.722.722,0,0,0-.53.552l-.316,1.566h-1.193l-.316-1.566a.722.722,0,0,0-.53-.552,5.426,5.426,0,0,1-1.352-.564.719.719,0,0,0-.754.012l-1.352.89c-.291-.283-.571-.568-.856-.845l.889-1.341a.721.721,0,0,0,.034-.767,5.787,5.787,0,0,1-.574-1.363.722.722,0,0,0-.542-.519l-1.611-.349v-1.2l1.611-.337a.722.722,0,0,0,.542-.519,5.852,5.852,0,0,1,.574-1.375.722.722,0,0,0-.034-.755l-.9-1.353c.284-.277.576-.55.867-.833l1.352.878a.719.719,0,0,0,.754.023,5.463,5.463,0,0,1,1.352-.576.722.722,0,0,0,.53-.552Zm.6,4.655a2.905,2.905,0,0,0-2.894,2.9,2.905,2.905,0,0,0,2.894,2.9,2.906,2.906,0,0,0,2.9-2.9A2.906,2.906,0,0,0-1372.952,976.109Zm0,1.442A1.45,1.45,0,0,1-1371.5,979a1.45,1.45,0,0,1-1.454,1.454A1.45,1.45,0,0,1-1374.4,979,1.45,1.45,0,0,1-1372.952,977.551Z"/></g></svg>