<svg xmlns="http://www.w3.org/2000/svg" width="18.5" height="18.5" viewBox="0 0 18.5 18.5"><defs><style>.a,.b{fill:#fff;}.a{stroke:#fff;stroke-width:0.5px;}</style></defs><g transform="translate(1439.918 -1003.747)"><path class="a" d="M-1430.693,1022a9,9,0,0,1-8.975-9.026,9,9,0,0,1,9.026-8.974,9,9,0,0,1,8.974,9.025h0A9,9,0,0,1-1430.693,1022Zm0-16.985a8.011,8.011,0,0,0-8.011,8.011,8.01,8.01,0,0,0,8.011,8.01,8.01,8.01,0,0,0,8.01-8.01A8.028,8.028,0,0,0-1430.693,1005.011Z" transform="translate(0)"/><path class="b" d="M-1431.28,1016.742a.949.949,0,0,1-.948-.946v-3.458a.948.948,0,0,1,.924-.972.948.948,0,0,1,.971.924v3.506A.949.949,0,0,1-1431.28,1016.742Z" transform="translate(0.587 0.758)"/><path class="b" d="M-1431.28,1010.347h-.19c-.047,0-.142-.048-.189-.048a.366.366,0,0,1-.19-.1l-.142-.142a1.12,1.12,0,0,1-.332-.757v-.193c0-.095.048-.142.048-.189.047-.048.047-.142.095-.19a.655.655,0,0,0,.142-.189,1.01,1.01,0,0,1,.948-.285c.047,0,.142.048.189.048a.365.365,0,0,1,.19.095l.142.142a1.121,1.121,0,0,1,.332.758.947.947,0,0,1-.332.759A.968.968,0,0,1-1431.28,1010.347Z" transform="translate(0.587 0.339)"/></g></svg>