<svg xmlns="http://www.w3.org/2000/svg" width="72" height="64" viewBox="0 0 72 64"><defs><style>.a{fill:#fff;}</style></defs><path class="a" d="M72,36.121a44.278,44.278,0,0,0-.964-8.679v-.175A43.3,43.3,0,0,0,72,18.586a50.725,50.725,0,0,0-.964-8.767,1.51,1.51,0,0,0-.876-1.052h0L59.212.614a3.659,3.659,0,0,0-.876-.351C58.248.351,47.912,0,36,0,24,0,13.752.351,13.664.351A1.124,1.124,0,0,0,12.788.7L1.927,8.767h0a1.51,1.51,0,0,0-.876,1.052,44.461,44.461,0,0,0-.964,8.767,43.3,43.3,0,0,0,.964,8.679v.175A34.216,34.216,0,0,0,0,36.121,43.3,43.3,0,0,0,.964,44.8v.175A41.151,41.151,0,0,0,0,53.567a44.636,44.636,0,0,0,.964,8.767,1.582,1.582,0,0,0,1.489,1.227C2.628,63.562,18.394,64,36,64s33.372-.438,33.547-.438a1.582,1.582,0,0,0,1.489-1.227A50.725,50.725,0,0,0,72,53.567a44.278,44.278,0,0,0-.964-8.679v-.175A43.041,43.041,0,0,0,72,36.121ZM14.277,3.419h.175c2.54-.088,11.474-.263,21.547-.263,10.161,0,19.095.263,21.547.263h.175L64.467,8.5h-1.4c-6.394-.088-16.292-.263-27.153-.263S15.153,8.416,8.759,8.5h-1.4ZM3.766,12.1l.088-.351H4.2C9.022,11.66,21.635,11.4,36,11.4s27.066.263,31.8.351h.35l.088.351a40.811,40.811,0,0,1,.613,6.488,41.889,41.889,0,0,1-.613,6.488l-.088.351H67.8c-2.891.088-10.686.263-20.321.351-3.591,0-7.533-.088-11.474-.088-4.029,0-7.883,0-11.474.088-9.635-.088-17.431-.263-20.321-.351h-.35l-.088-.351a39.776,39.776,0,0,1-.613-6.488A40.811,40.811,0,0,1,3.766,12.1ZM68.234,60.055l-.088.351H67.8c-4.905.088-17.693.351-31.8.351s-26.978-.263-31.8-.351h-.35l-.088-.351a39.776,39.776,0,0,1-.613-6.488,39.776,39.776,0,0,1,.613-6.488l.088-.351H4.2c3.591-.088,11.036-.263,20.321-.351h0c3.591,0,7.533.088,11.474.088,4.029,0,7.883,0,11.474-.088,9.635.088,17.431.263,20.321.351h.35l.088.351a40.811,40.811,0,0,1,.613,6.488A40.811,40.811,0,0,1,68.234,60.055Zm0-17.447-.088.351H67.8c-2.891.088-10.686.263-20.321.351-3.591,0-7.533-.088-11.474-.088-4.029,0-7.883,0-11.562.088-9.547-.175-17.343-.263-20.234-.351h-.35l-.088-.351a40.811,40.811,0,0,1-.613-6.488,40.811,40.811,0,0,1,.613-6.488l.088-.351H4.2c3.591-.088,11.036-.263,20.321-.351,3.591,0,7.533.088,11.474.088s7.883,0,11.474-.088c9.723.088,17.518.263,20.321.351h.35l.088.351a40.81,40.81,0,0,1,.613,6.488A43.011,43.011,0,0,1,68.234,42.608Z"/><path class="a" d="M11.779,58.7a2.179,2.179,0,1,0,2.179,2.179A2.158,2.158,0,0,0,11.779,58.7Z" transform="translate(-1.233 -7.164)"/><path class="a" d="M19.379,58.7a2.179,2.179,0,1,0,2.179,2.179A2.158,2.158,0,0,0,19.379,58.7Z" transform="translate(-2.13 -7.164)"/><circle class="a" cx="2.179" cy="2.179" r="2.179" transform="translate(21.642 51.536)"/><path class="a" d="M69.779,58.7a2.179,2.179,0,1,0,2.179,2.179A2.158,2.158,0,0,0,69.779,58.7Z" transform="translate(-8.325 -7.164)"/><path class="a" d="M11.779,38.7a2.179,2.179,0,1,0,2.179,2.179A2.214,2.214,0,0,0,11.779,38.7Z" transform="translate(-1.233 -4.757)"/><path class="a" d="M19.379,38.7a2.179,2.179,0,1,0,2.179,2.179A2.214,2.214,0,0,0,19.379,38.7Z" transform="translate(-2.13 -4.757)"/><path class="a" d="M26.879,38.7a2.179,2.179,0,1,0,2.179,2.179A2.214,2.214,0,0,0,26.879,38.7Z" transform="translate(-3.058 -4.757)"/><path class="a" d="M69.779,38.7a2.179,2.179,0,1,0,2.179,2.179A2.214,2.214,0,0,0,69.779,38.7Z" transform="translate(-8.325 -4.757)"/><path class="a" d="M11.779,23.158A2.179,2.179,0,1,0,9.6,20.979,2.214,2.214,0,0,0,11.779,23.158Z" transform="translate(-1.233 -2.311)"/><path class="a" d="M19.379,23.158A2.179,2.179,0,1,0,17.2,20.979,2.158,2.158,0,0,0,19.379,23.158Z" transform="translate(-2.13 -2.311)"/><circle class="a" cx="2.179" cy="2.179" r="2.179" transform="translate(21.642 16.489)"/><path class="a" d="M69.779,23.158A2.179,2.179,0,1,0,67.6,20.979,2.158,2.158,0,0,0,69.779,23.158Z" transform="translate(-8.325 -2.311)"/></svg>