<svg xmlns="http://www.w3.org/2000/svg" width="48.003" height="48.003" viewBox="0 0 48.003 48.003"><defs><style>.a{fill:#fff;}</style></defs><g transform="translate(0 0)"><path class="a" d="M42,48H6a6.007,6.007,0,0,1-6-6V6A6.007,6.007,0,0,1,6,0H42a6.007,6.007,0,0,1,6,6V42A6.007,6.007,0,0,1,42,48ZM6.556,34.2h0A21.561,21.561,0,0,0,17.52,37.167a22,22,0,0,0,8.741-1.72A19.32,19.32,0,0,0,36.568,24.916,17.979,17.979,0,0,0,37.9,18.261c0-.281,0-.571-.014-.856a13.937,13.937,0,0,0,3.576-3.447,15.41,15.41,0,0,1-4.121,1.05,6.785,6.785,0,0,0,3.157-3.68,14.93,14.93,0,0,1-4.554,1.607,7.372,7.372,0,0,0-5.224-2.1,6.929,6.929,0,0,0-7.166,6.648A6.8,6.8,0,0,0,23.737,19a21.326,21.326,0,0,1-8.288-2.068,20.173,20.173,0,0,1-6.476-4.877A6.311,6.311,0,0,0,8.008,15.4a6.543,6.543,0,0,0,3.185,5.533,7.728,7.728,0,0,1-3.241-.83v.091a6.806,6.806,0,0,0,5.741,6.519,7.743,7.743,0,0,1-3.226.116,7.105,7.105,0,0,0,6.691,4.613,15.014,15.014,0,0,1-8.9,2.851A14.713,14.713,0,0,1,6.556,34.2Z" transform="translate(0 0)"/></g></svg>