<svg xmlns="http://www.w3.org/2000/svg" width="18" height="19" viewBox="0 0 18 19"><defs><style>.a{fill:#fff;}</style></defs><g transform="translate(1098.841 -1029.723)"><path class="a" d="M-1084.7,1037.048l-6.609-3.241a.575.575,0,0,0-.769.263.576.576,0,0,0,.263.77l6.609,3.241a.583.583,0,0,0,.252.059.576.576,0,0,0,.517-.323A.575.575,0,0,0-1084.7,1037.048Z" transform="translate(0.167 -0.1)"/><path class="a" d="M-1086.5,1040.426l-6.608-3.241a.576.576,0,0,0-.769.263.576.576,0,0,0,.263.77l6.608,3.241a.58.58,0,0,0,.252.059.575.575,0,0,0,.517-.323A.575.575,0,0,0-1086.5,1040.426Z" transform="translate(0.122 -0.184)"/><path class="a" d="M-1088.057,1043.6l-6.607-3.241a.578.578,0,0,0-.77.264.577.577,0,0,0,.264.77l6.608,3.24a.582.582,0,0,0,.252.059.577.577,0,0,0,.517-.323A.575.575,0,0,0-1088.057,1043.6Z" transform="translate(0.083 -0.262)"/><path class="a" d="M-1081.537,1034.316l-3.124-1.513.008-.774a1.19,1.19,0,0,0-.368-.864,1.277,1.277,0,0,0-.89-.357l-2.878-.006-1.963-.95a1.307,1.307,0,0,0-.962-.067,1.245,1.245,0,0,0-.729.611l-.21.405-3.563-.006h0a1.274,1.274,0,0,0-.888.356,1.19,1.19,0,0,0-.37.862l-.014,8.136-1.214,2.344a1.172,1.172,0,0,0-.069.931,1.215,1.215,0,0,0,.631.705l.65.315,0,1.1a1.187,1.187,0,0,0,.368.863,1.273,1.273,0,0,0,.889.358l3.549.008,3.762,1.822a1.27,1.27,0,0,0,.561.13,1.271,1.271,0,0,0,1.131-.674l.66-1.275h.648a1.272,1.272,0,0,0,.888-.355,1.2,1.2,0,0,0,.371-.862l.006-2.479,3.689-7.126A1.2,1.2,0,0,0-1081.537,1034.316Zm-14.777-2.3.094-.091,2.983,0-3.088,5.963Zm14.3,3.432-5.458,10.541v0l-.8,1.555a.1.1,0,0,1-.128.042l-9.215-4.465a.1.1,0,0,1-.042-.123l1.282-2.476.011-.021,4.97-9.6a.109.109,0,0,1,.127-.041l9.214,4.465A.09.09,0,0,1-1082.017,1035.447Z" transform="translate(0 0)"/></g></svg>