<svg xmlns="http://www.w3.org/2000/svg" width="65" height="73" viewBox="0 0 65 73"><defs><style>.a{fill:#fff;}</style></defs><g transform="translate(-0.1)"><path class="a" d="M60.8,46.259V26.741a5.852,5.852,0,0,0,4.3-5.675,5.761,5.761,0,0,0-5.761-5.761,5.377,5.377,0,0,0-4.127,1.72L38.361,7.309A4.525,4.525,0,0,0,38.7,5.761a5.761,5.761,0,1,0-11.521,0c0,.43.172.946.172,1.376l-16.938,9.8a8.284,8.284,0,0,0-4.557-1.72A5.806,5.806,0,0,0,4.485,26.655V46.173A5.806,5.806,0,0,0,5.861,57.609a5.647,5.647,0,0,0,4.127-1.72l17.11,9.8a4.27,4.27,0,0,0-.172,1.548,5.761,5.761,0,1,0,11.521,0c0-.43-.172-1.032-.172-1.548l16.766-9.8a5.7,5.7,0,0,0,4.127,1.72A5.8,5.8,0,0,0,60.8,46.259Zm-4.127-26.4a2.646,2.646,0,0,1,2.407-1.548,2.751,2.751,0,0,1,0,5.5h0C56.932,23.817,55.728,22.1,56.674,19.862Zm-3.267-.172a6.285,6.285,0,0,0,0,3.1l-8.082,4.729L34.062,20.98V11.608a5.094,5.094,0,0,0,2.579-1.548ZM22.8,29.32l9.8-5.675,9.8,5.675-9.8,5.5Zm8.168,19.346-9.8-5.675V31.728l9.8,5.675ZM43.777,31.9V43.078l-9.8,5.761V37.575ZM32.686,3.1a2.716,2.716,0,0,1,2.751,2.751,2.837,2.837,0,0,1-5.675,0A2.865,2.865,0,0,1,32.686,3.1ZM11.621,19.862h0L28.387,9.888h0a6.11,6.11,0,0,0,2.579,1.548v9.458L19.7,27.515l-8.254-4.729A5.7,5.7,0,0,0,11.621,19.862ZM3.109,21.238a2.716,2.716,0,0,1,2.751-2.751,2.646,2.646,0,0,1,2.407,1.548,2.925,2.925,0,0,1-2.407,4.127h0A2.983,2.983,0,0,1,3.109,21.238ZM5.775,54.771a2.751,2.751,0,0,1,0-5.5C9.214,48.839,10.074,54.514,5.775,54.771Zm1.72-8.512V26.827c.344.172,2.579-1.2,2.407-1.376l8.254,4.729V43.164l-8.082,4.729A6.909,6.909,0,0,0,7.494,46.259Zm3.955,7.309a4.263,4.263,0,0,0,0-2.923h0L19.7,45.915l11.263,6.449v9.458a5.218,5.218,0,0,0-2.579,1.548ZM32.686,70.249A2.716,2.716,0,0,1,29.935,67.5c.344-3.7,5.159-3.783,5.675,0A3.053,3.053,0,0,1,32.686,70.249ZM36.813,63.2a5.131,5.131,0,0,0-1.72-1.2l-.172-.172c-.344-.172-.43-.172-.774-.344V52.02l11.263-6.535,8.082,4.557a4.77,4.77,0,0,0,0,3.1ZM55.126,47.807l-8.082-4.729V30.094L55.3,25.365a8.585,8.585,0,0,0,2.579,1.548V46.259A4.583,4.583,0,0,0,55.126,47.807Zm4.127,6.965c-3.181,0-3.955-4.385-.6-5.5a2.908,2.908,0,0,1,3.525,2.751A3.127,3.127,0,0,1,59.253,54.771Z" transform="translate(0)"/></g></svg>