<svg xmlns="http://www.w3.org/2000/svg" width="72" height="72" viewBox="0 0 72 72"><defs><style>.a{fill:#fff;}</style></defs><path class="a" d="M36,0A35.861,35.861,0,0,0,.172,32.469C.086,33.589,0,34.88,0,36A36,36,0,1,0,36,0ZM58.565,40.565a1.674,1.674,0,0,1,1.722,1.722,1.722,1.722,0,1,1-1.722-1.722ZM48.488,43.837h5.426a4.979,4.979,0,0,0,4.565,3.273,4.866,4.866,0,1,0-4.651-6.459H45.3v26.7h-.172a22.264,22.264,0,0,1-3.445.775V18.172H28.766A4.979,4.979,0,0,0,24.2,14.9a4.871,4.871,0,0,0-4.823,4.823A4.946,4.946,0,0,0,24.2,24.632a4.871,4.871,0,0,0,4.651-3.273h9.9V68.641c-.861.086-1.722.086-2.67.086H34.45v-42.2H4.478A32.921,32.921,0,0,1,36,3.187a30.8,30.8,0,0,1,9.3,1.378V26.01h8.612a4.979,4.979,0,0,0,4.565,3.273A4.871,4.871,0,0,0,63.3,24.459a5.006,5.006,0,0,0-4.823-4.909,4.871,4.871,0,0,0-4.651,3.273h-5.34V5.6A32.8,32.8,0,0,1,48.4,66.23V43.837ZM24.029,21.531a1.674,1.674,0,0,1-1.722-1.722,1.728,1.728,0,0,1,1.722-1.722,1.867,1.867,0,0,1,1.809,1.722A1.748,1.748,0,0,1,24.029,21.531Zm34.536,1.12a1.627,1.627,0,0,1,1.722,1.722,1.722,1.722,0,1,1-1.722-1.722ZM16.45,34.708a4.979,4.979,0,0,0-4.565-3.273,4.824,4.824,0,1,0,0,9.646,4.871,4.871,0,0,0,4.651-3.273H23.77V66.4A32.765,32.765,0,0,1,3.187,36c0-1.033.086-2.239.172-3.273a25.306,25.306,0,0,1,.431-3.014H31.263V68.555a30.092,30.092,0,0,1-4.306-.947v-32.9ZM11.8,38.067a1.674,1.674,0,0,1-1.722-1.722A1.728,1.728,0,0,1,11.8,34.622a1.937,1.937,0,0,1,1.809,1.722A1.748,1.748,0,0,1,11.8,38.067Z"/></svg>