<svg xmlns="http://www.w3.org/2000/svg" width="48.003" height="48.003" viewBox="0 0 48.003 48.003"><defs><style>.a{fill:#fff;}</style></defs><g transform="translate(0 0)"><path class="a" d="M42,48H6a6.007,6.007,0,0,1-6-6V6A6.007,6.007,0,0,1,6,0H42a6.007,6.007,0,0,1,6,6V42A6.007,6.007,0,0,1,42,48ZM30.641,22.528c3.366,0,4.073,2.974,4.073,5.468v12.94h8.039V27.067a15.391,15.391,0,0,0-.7-4.835,9.25,9.25,0,0,0-1.942-3.393A8.7,8.7,0,0,0,33.5,16.183a8.3,8.3,0,0,0-4.821,1.379,9.042,9.042,0,0,0-2.424,2.614V16.752H18.213c.106,2.24,0,23.966,0,24.185h8.039V27.43a5.326,5.326,0,0,1,.265-1.963,5.01,5.01,0,0,1,1.447-2.011A4.13,4.13,0,0,1,30.641,22.528ZM5.724,16.752V40.937h8.041V16.752ZM9.8,5.089a4.7,4.7,0,0,0-3.306,1.2A4.038,4.038,0,0,0,5.251,9.268a4.089,4.089,0,0,0,1.209,2.96,4.51,4.51,0,0,0,3.233,1.219h.052a4.685,4.685,0,0,0,3.326-1.219,4.05,4.05,0,0,0,1.223-2.96A4.223,4.223,0,0,0,13.057,6.29,4.566,4.566,0,0,0,9.8,5.089Z" transform="translate(0 0)"/></g></svg>