<svg xmlns="http://www.w3.org/2000/svg" width="89" height="60.027" viewBox="0 0 89 60.027"><defs><style>.a{fill:#fff;stroke:rgba(0,0,0,0);stroke-miterlimit:10;}</style></defs><path class="a" d="M-2835.7-1992.3l-1.485-1.046a58.792,58.792,0,0,1-6.876-5.337c-2.982-2.849-4.432-5.685-4.432-8.672v-16.15a1.775,1.775,0,0,1,1.631-1.634h24.229a1.7,1.7,0,0,1,1.634,1.634v16.15c0,2.986-1.45,5.822-4.433,8.672a58.8,58.8,0,0,1-6.85,5.321l-1.51,1.062a1.636,1.636,0,0,1-.954.3A1.632,1.632,0,0,1-2835.7-1992.3Zm-9.525-15.054c0,2.068,1.089,4.073,3.427,6.306a56.7,56.7,0,0,0,6.446,4.977l.6.428.6-.426a56.591,56.591,0,0,0,6.451-4.98c2.339-2.233,3.426-4.236,3.426-6.306v-14.514h-20.956Zm-48.039,5.946A15.625,15.625,0,0,1-2909-2016.927a15.669,15.669,0,0,1,13.988-15.737,15,15,0,0,1,9.4-11.8,15.332,15.332,0,0,1,14.425,1.312c3.934-7.213,12.021-9.4,19.235-6.776,7.43,2.841,11.8,10.054,9.836,17.924a15.973,15.973,0,0,1,5.738,3.382h-7.922c-.146-.033-.291-.076-.44-.1a2.247,2.247,0,0,1-1.53-2.623c2.623-6.557-.437-12.677-6.994-15.081-6.339-2.4-12.677,0-15.3,6.557a1.907,1.907,0,0,1-3.06.875,11.9,11.9,0,0,0-12.458-2.185,11.594,11.594,0,0,0-7.431,10.273,1.959,1.959,0,0,1-1.968,1.967,11.8,11.8,0,0,0-11.8,12.021,12.127,12.127,0,0,0,12.021,12.02h41.972a13.391,13.391,0,0,0,1.449,3.5Zm51.419-8.631,2.368-2.367,4.049,4.05,7.673-7.673,2.368,2.367-10.041,10.04Z" transform="translate(2909.5 2051.527)"/></svg>